#!OML:ASF F:\VICON\USERDATA\INSTALL\rory3\rory3.ASF
:FULLY-SPECIFIED
:DEGREES
294
root 0.36 17.5541 23.8611 -1.13049 1.30092 3.09321
lowerback 9.83199 -1.39671 -4.69947
upperback 0.533141 -2.29858 1.60182
thorax -4.7082 -1.02075 4.63995
lowerneck -15.6978 -2.66142 -2.24531
upperneck 21.1438 -3.4673 1.38066
head 9.31538 -1.64814 0.412213
rclavicle -1.34677e-014 1.66979e-014
rhumerus -36.8519 -31.1677 -69.8216
rradius 20.9699
rwrist 11.3342
rhand -19.838 24.7852
rfingers 7.12502
rthumb 6.49622 -5.09512
lclavicle -1.34677e-014 1.66979e-014
lhumerus -18.4275 -5.9098 81.1437
lradius 32.0896
lwrist 8.22305
lhand -24.6269 21.9196
lfingers 7.12502
lthumb 1.87193 51.8912
rfemur -30.7165 4.44033 17.299
rtibia 22.3837
rfoot -7.58263 -10.6871
rtoes 3.15595
lfemur 15.4389 -3.48902 -27.3952
ltibia 18.7168
lfoot -16.5098 -1.50412
ltoes -15.0572
295
root 0.342168 17.5299 24.0757 -1.21935 1.40485 3.44523
lowerback 9.7828 -1.39377 -5.00466
upperback 0.522121 -2.33429 1.44535
thorax -4.6829 -1.03401 4.65066
lowerneck -15.5272 -2.63893 -2.14095
upperneck 21.0333 -3.45908 1.35772
head 9.24264 -1.64006 0.390784
rclavicle 4.63168e-014 -4.77083e-015
rhumerus -37.4177 -31.7567 -69.3185
rradius 20.7368
rwrist 12.043
rhand -20.2563 24.1576
rfingers 7.12502
rthumb 6.09234 -5.73485
lclavicle 4.63168e-014 -4.77083e-015
lhumerus -18.5499 -5.92434 81.1346
lradius 32.2471
lwrist 8.2984
lhand -26.058 18.4569
lfingers 7.12502
lthumb 0.489745 48.4361
rfemur -30.6658 3.86927 17.3554
rtibia 24.0069
rfoot -9.33649 -9.99953
rtoes 5.44223
lfemur 15.6666 -3.91652 -27.8566
ltibia 19.444
lfoot -15.7479 -2.02045
ltoes -14.6014
296
root 0.317147 17.5314 24.2981 -1.34668 1.52937 3.08285
lowerback 9.71055 -1.44316 -4.66757
upperback 0.604212 -2.35434 1.51839
thorax -4.56398 -1.05593 4.53378
lowerneck -15.6494 -2.60777 -2.22645
upperneck 21.0095 -3.42051 1.48586
head 9.26035 -1.61379 0.452319
rclavicle -1.38155e-014 -1.03368e-014
rhumerus -37.7032 -32.2542 -68.9952
rradius 20.4513
rwrist 12.5819
rhand -20.1362 23.4111
rfingers 7.12502
rthumb 6.2083 -6.47795
lclavicle -1.38155e-014 -1.03368e-014
lhumerus -18.7597 -5.81525 81.1547
lradius 32.6478
lwrist 8.3101
lhand -26.439 19.2838
lfingers 7.12502
lthumb 0.121763 49.2635
rfemur -30.5052 3.86525 17.977
rtibia 25.3467
rfoot -6.69811 -9.45136
rtoes -0.452833
lfemur 16.1823 -4.16666 -27.4526
ltibia 20.2478
lfoot -15.2576 -2.08602
ltoes -16.7155
297
root 0.285657 17.5509 24.5139 -1.34826 1.59218 2.79434
lowerback 9.73873 -1.4503 -4.46576
upperback 0.506505 -2.34098 1.58865
thorax -4.68881 -1.04694 4.49578
lowerneck -15.6968 -2.57092 -2.37496
upperneck 21.1136 -3.37513 1.66835
head 9.31067 -1.58356 0.544403
rclavicle -2.93207e-015 4.77083e-015
rhumerus -38.3223 -32.6899 -68.4228
rradius 20.1093
rwrist 12.7003
rhand -18.9905 23.1685
rfingers 7.12502
rthumb 7.3143 -6.68505
lclavicle -2.93207e-015 4.77083e-015
lhumerus -18.9903 -5.67989 81.2168
lradius 32.8531
lwrist 8.33201
lhand -26.6293 22.8059
lfingers 7.12502
lthumb -0.062077 52.7856
rfemur -30.5449 4.20401 18.3744
rtibia 26.3217
rfoot -4.58391 -9.11618
rtoes -4.9193
lfemur 16.2979 -4.59232 -27.1433
ltibia 21.209
lfoot -14.3535 -2.50061
ltoes -16.5099
298
root 0.260452 17.5756 24.727 -1.34133 1.55386 2.3678
lowerback 9.74517 -1.47345 -4.02553
upperback 0.358165 -2.32027 1.68696
thorax -4.86345 -1.03725 4.35181
lowerneck -15.6147 -2.5455 -2.36678
upperneck 21.2699 -3.32184 1.56134
head 9.34659 -1.57035 0.513498
rclavicle 9.54166e-015 7.95139e-016
rhumerus -39.2301 -33.9957 -67.1045
rradius 19.4412
rwrist 13.764
rhand -17.9047 23.7022
rfingers 7.12502
rthumb 8.36233 -6.11231
lclavicle 9.54166e-015 7.95139e-016
lhumerus -19.1456 -5.53342 81.2871
lradius 32.6038
lwrist 8.41926
lhand -26.861 23.2759
lfingers 7.12502
lthumb -0.285812 53.2555
rfemur -30.4925 4.58124 18.8404
rtibia 26.8936
rfoot -3.29717 -8.86769
rtoes -6.28606
lfemur 16.1432 -5.13229 -26.798
ltibia 22.4807
lfoot -13.0196 -3.03197
ltoes -15.4041
299
root 0.239966 17.6012 24.947 -1.43366 1.49613 1.65367
lowerback 9.68113 -1.5173 -3.29672
upperback 0.301234 -2.2846 1.91019
thorax -4.90964 -1.03171 4.16831
lowerneck -15.5461 -2.49432 -2.37779
upperneck 21.4039 -3.20325 1.358
head 9.37467 -1.53906 0.460802
rclavicle 3.10601e-014 -1.66979e-014
rhumerus -39.6974 -34.371 -66.4765
rradius 19.007
rwrist 14.3797
rhand -18.1393 23.9168
rfingers 7.12502
rthumb 8.13593 -5.90655
lclavicle 3.10601e-014 -1.66979e-014
lhumerus -19.282 -5.26902 81.4782
lradius 32.2904
lwrist 8.53762
lhand -28.62 18.9623
lfingers 7.12502
lthumb -1.98471 48.9328
rfemur -30.177 5.01023 19.5447
rtibia 27.3
rfoot -2.9738 -8.55734
rtoes -5.13462
lfemur 16.0064 -5.5439 -26.1379
ltibia 24.0285
lfoot -11.6201 -3.52293
ltoes -15.8841
